<svg width="24" height="24" viewBox="0 0 24 24" fill="none" xmlns="http://www.w3.org/2000/svg">
    <mask id="path-1-outside-1_86_891" maskUnits="userSpaceOnUse" x="3" y="3" width="18" height="18" fill="black">
        <rect fill="white" x="3" y="3" width="18" height="18"/>
        <path fill-rule="evenodd" clip-rule="evenodd" d="M12.7671 4.66914C12.7159 4.29126 12.3919 4 12 4C11.5724 4 11.2258 4.34662 11.2258 4.77419V11.2258H4.77419L4.66914 11.2329C4.29126 11.2841 4 11.6081 4 12C4 12.4276 4.34662 12.7742 4.77419 12.7742H11.2258V19.2258L11.2329 19.3309C11.2841 19.7087 11.6081 20 12 20C12.4276 20 12.7742 19.6534 12.7742 19.2258V12.7742H19.2258L19.3309 12.7671C19.7087 12.7159 20 12.3919 20 12C20 11.5724 19.6534 11.2258 19.2258 11.2258H12.7742V4.77419L12.7671 4.66914Z"/>
    </mask>
    <path fill-rule="evenodd" clip-rule="evenodd" d="M12.7671 4.66914C12.7159 4.29126 12.3919 4 12 4C11.5724 4 11.2258 4.34662 11.2258 4.77419V11.2258H4.77419L4.66914 11.2329C4.29126 11.2841 4 11.6081 4 12C4 12.4276 4.34662 12.7742 4.77419 12.7742H11.2258V19.2258L11.2329 19.3309C11.2841 19.7087 11.6081 20 12 20C12.4276 20 12.7742 19.6534 12.7742 19.2258V12.7742H19.2258L19.3309 12.7671C19.7087 12.7159 20 12.3919 20 12C20 11.5724 19.6534 11.2258 19.2258 11.2258H12.7742V4.77419L12.7671 4.66914Z" fill="#3F3B3B"/>
    <path d="M12.7671 4.66914L13.266 4.63558L13.2649 4.6187L13.2626 4.60192L12.7671 4.66914ZM11.2258 11.2258V11.7258H11.7258V11.2258H11.2258ZM4.77419 11.2258V10.7258H4.75739L4.74063 10.7269L4.77419 11.2258ZM4.66914 11.2329L4.63558 10.734L4.61869 10.7351L4.60193 10.7374L4.66914 11.2329ZM11.2258 12.7742H11.7258V12.2742H11.2258V12.7742ZM11.2258 19.2258H10.7258V19.2426L10.7269 19.2594L11.2258 19.2258ZM11.2329 19.3309L10.734 19.3644L10.7351 19.3813L10.7374 19.3981L11.2329 19.3309ZM12.7742 12.7742V12.2742H12.2742V12.7742H12.7742ZM19.2258 12.7742V13.2742H19.2426L19.2594 13.2731L19.2258 12.7742ZM19.3309 12.7671L19.3644 13.266L19.3813 13.2649L19.3981 13.2626L19.3309 12.7671ZM12.7742 11.2258H12.2742V11.7258H12.7742V11.2258ZM12.7742 4.77419H13.2742V4.7574L13.2731 4.74064L12.7742 4.77419ZM12 4.5C12.1384 4.5 12.2536 4.60301 12.2717 4.73636L13.2626 4.60192C13.1781 3.9795 12.6455 3.5 12 3.5V4.5ZM11.7258 4.77419C11.7258 4.62276 11.8486 4.5 12 4.5V3.5C11.2963 3.5 10.7258 4.07048 10.7258 4.77419H11.7258ZM11.7258 11.2258V4.77419H10.7258V11.2258H11.7258ZM4.77419 11.7258H11.2258V10.7258H4.77419V11.7258ZM4.7027 11.7317L4.80776 11.7247L4.74063 10.7269L4.63558 10.734L4.7027 11.7317ZM4.5 12C4.5 11.8616 4.60301 11.7464 4.73636 11.7283L4.60193 10.7374C3.9795 10.8219 3.5 11.3545 3.5 12H4.5ZM4.77419 12.2742C4.62276 12.2742 4.5 12.1514 4.5 12H3.5C3.5 12.7037 4.07048 13.2742 4.77419 13.2742V12.2742ZM11.2258 12.2742H4.77419V13.2742H11.2258V12.2742ZM11.7258 19.2258V12.7742H10.7258V19.2258H11.7258ZM11.7317 19.2973L11.7247 19.1922L10.7269 19.2594L10.734 19.3644L11.7317 19.2973ZM12 19.5C11.8616 19.5 11.7464 19.397 11.7283 19.2636L10.7374 19.3981C10.8219 20.0205 11.3545 20.5 12 20.5V19.5ZM12.2742 19.2258C12.2742 19.3772 12.1514 19.5 12 19.5V20.5C12.7037 20.5 13.2742 19.9295 13.2742 19.2258H12.2742ZM12.2742 12.7742V19.2258H13.2742V12.7742H12.2742ZM19.2258 12.2742H12.7742V13.2742H19.2258V12.2742ZM19.2973 12.2683L19.1922 12.2753L19.2594 13.2731L19.3644 13.266L19.2973 12.2683ZM19.5 12C19.5 12.1384 19.397 12.2536 19.2636 12.2717L19.3981 13.2626C20.0205 13.1781 20.5 12.6455 20.5 12H19.5ZM19.2258 11.7258C19.3772 11.7258 19.5 11.8486 19.5 12H20.5C20.5 11.2963 19.9295 10.7258 19.2258 10.7258V11.7258ZM12.7742 11.7258H19.2258V10.7258H12.7742V11.7258ZM12.2742 4.77419V11.2258H13.2742V4.77419H12.2742ZM12.2683 4.7027L12.2753 4.80775L13.2731 4.74064L13.266 4.63558L12.2683 4.7027Z" fill="#3F3B3B" mask="url(#path-1-outside-1_86_891)"/>
</svg>
