<svg width="39" height="30" viewBox="0 0 39 30" fill="none" xmlns="http://www.w3.org/2000/svg">
    <path d="M38.8369 16.8926C38.8369 17.0519 39 17.2112 39 17.2112V17.5298C39 17.6892 38.8369 17.8485 38.8369 17.8485L26.7614 29.6415C26.272 30.1195 25.6192 30.1195 25.2929 29.6415C24.8035 29.1636 24.8035 28.526 25.2929 28.2073L35.5738 18.1668L9.62759 18.1675C4.24261 18.1675 0 13.8646 0 8.765V1.11551C0 0.477919 0.489401 0 1.14221 0C1.79506 0 2.12134 0.477959 2.12134 1.11551V8.765C2.12134 12.7492 5.54815 16.0959 9.62776 16.0959H35.2473L24.9664 6.0554C24.477 5.57744 24.477 4.93989 24.9664 4.6212C25.1295 4.46188 25.4558 4.30256 25.7824 4.30256C26.1087 4.30256 26.2718 4.46189 26.5984 4.6212L38.6738 16.4143C38.6738 16.5736 38.6738 16.7329 38.8373 16.8922L38.8369 16.8926Z" fill="#323232"/>
</svg>
