<svg width="24" height="24" viewBox="0 0 24 24" fill="none" xmlns="http://www.w3.org/2000/svg">
<path fill-rule="evenodd" clip-rule="evenodd" d="M9.28033 8.28033C9.57322 7.98744 9.57322 7.51256 9.28033 7.21967C8.98744 6.92678 8.51256 6.92678 8.21967 7.21967L4.21967 11.2197C4.14776 11.2916 4.09351 11.3745 4.05691 11.4629C4.02024 11.5513 4 11.6483 4 11.75C4 11.8517 4.02024 11.9487 4.05691 12.0371C4.05857 12.0411 4.06026 12.0451 4.062 12.0491C4.09847 12.133 4.15102 12.2117 4.21967 12.2803L8.21967 16.2803C8.51256 16.5732 8.98744 16.5732 9.28033 16.2803C9.57322 15.9874 9.57322 15.5126 9.28033 15.2197L6.56066 12.5H18.75C19.1642 12.5 19.5 12.1642 19.5 11.75C19.5 11.3358 19.1642 11 18.75 11H6.56066L9.28033 8.28033Z" fill="#3F3B3B"/>
</svg>
