<svg width="24" height="24" viewBox="0 0 24 24" fill="none" xmlns="http://www.w3.org/2000/svg">
<path fill-rule="evenodd" clip-rule="evenodd" d="M12.7788 15.7803C12.5126 16.0466 12.0959 16.0708 11.8023 15.8529L11.7182 15.7803L5.68533 9.74534L5.64555 9.69621L5.58745 9.60471L5.55744 9.54193L5.52529 9.44938L5.50534 9.35177L5.50031 9.30231L5.4985 9.25L5.50031 9.19769L5.50534 9.14823L5.52529 9.05062L5.55744 8.95807L5.58745 8.89529L5.6505 8.799C5.67947 8.76033 5.70937 8.72721 5.7411 8.6978L5.80229 8.64705L5.89379 8.58896L5.95656 8.55894L6.04912 8.52679L6.14673 8.50685L6.19618 8.50182L6.2485 8.5L18.2485 8.5C18.8815 8.5 19.2152 9.22506 18.8468 9.70311L18.7788 9.78033L12.7788 15.7803Z" fill="#3F3B3B"/>
</svg>
