<svg width="24" height="24" viewBox="0 0 24 24" fill="none" xmlns="http://www.w3.org/2000/svg">
<path fill-rule="evenodd" clip-rule="evenodd" d="M11.2212 8.21967C11.4874 7.9534 11.9041 7.9292 12.1977 8.14705L12.2818 8.21967L18.3147 14.2547L18.3545 14.3038L18.4125 14.3953L18.4426 14.4581L18.4747 14.5506L18.4947 14.6482L18.4997 14.6977L18.5015 14.75L18.4997 14.8023L18.4947 14.8518L18.4747 14.9494L18.4426 15.0419L18.4125 15.1047L18.3495 15.201C18.3205 15.2397 18.2906 15.2728 18.2589 15.3022L18.1977 15.3529L18.1062 15.411L18.0434 15.4411L17.9509 15.4732L17.8533 15.4932L17.8038 15.4982L17.7515 15.5H5.7515C5.11849 15.5 4.78485 14.7749 5.15321 14.2969L5.22117 14.2197L11.2212 8.21967Z" fill="#3F3B3B"/>
</svg>
