<svg width="24" height="24" viewBox="0 0 24 24" fill="none" xmlns="http://www.w3.org/2000/svg">
<path fill-rule="evenodd" clip-rule="evenodd" d="M8.21967 12.7788C7.9534 12.5126 7.9292 12.0959 8.14705 11.8023L8.21967 11.7182L14.2547 5.68533L14.3038 5.64555L14.3953 5.58745L14.4581 5.55744L14.5506 5.52529L14.6482 5.50534L14.6977 5.50031L14.75 5.4985L14.8023 5.50031L14.8518 5.50534L14.9494 5.52529L15.0419 5.55744L15.1047 5.58745L15.201 5.6505C15.2397 5.67947 15.2728 5.70937 15.3022 5.7411L15.3529 5.80229L15.411 5.89379L15.4411 5.95656L15.4732 6.04912L15.4932 6.14673L15.494 6.1715L15.4982 6.19618L15.5 18.2485C15.5 18.8815 14.7749 19.2152 14.2969 18.8468L14.2197 18.7788L8.21967 12.7788Z" fill="#3F3B3B"/>
</svg>
