<svg width="24" height="24" viewBox="0 0 24 24" fill="none" xmlns="http://www.w3.org/2000/svg">
<path fill-rule="evenodd" clip-rule="evenodd" d="M15.7803 11.2212C16.0466 11.4874 16.0708 11.9041 15.8529 12.1977L15.7803 12.2818L9.74534 18.3147L9.69621 18.3545L9.60471 18.4125L9.54193 18.4426L9.44938 18.4747L9.35177 18.4947L9.30231 18.4997L9.25 18.5015L9.19769 18.4997L9.14823 18.4947L9.05062 18.4747L8.95807 18.4426L8.89529 18.4125L8.799 18.3495C8.76033 18.3205 8.72721 18.2906 8.6978 18.2589L8.64705 18.1977L8.58896 18.1062L8.55894 18.0434L8.52679 17.9509L8.50685 17.8533L8.50182 17.8038L8.5 17.7515L8.5 5.7515C8.5 5.11849 9.22506 4.78485 9.70311 5.15321L9.78033 5.22117L15.7803 11.2212Z" fill="#3F3B3B"/>
</svg>
