<svg width="24" height="24" viewBox="0 0 24 24" fill="none" xmlns="http://www.w3.org/2000/svg">
<path fill-rule="evenodd" clip-rule="evenodd" d="M11.75 21.5C17.1348 21.5 21.5 17.1348 21.5 11.75C21.5 6.36522 17.1348 2 11.75 2C6.36522 2 2 6.36522 2 11.75C2 17.1348 6.36522 21.5 11.75 21.5ZM9.40458 7.15458C9.61069 6.94847 9.94486 6.94847 10.151 7.15458L14.3732 11.3768L14.4243 11.436C14.5776 11.6426 14.5606 11.9358 14.3732 12.1232L10.151 16.3454L10.0918 16.3965C9.88516 16.5498 9.59196 16.5328 9.40458 16.3454L9.35348 16.2862C9.20018 16.0796 9.21721 15.7864 9.40458 15.599L13.2534 11.75L9.40458 7.90097L9.35348 7.84178C9.20018 7.63516 9.21721 7.34196 9.40458 7.15458Z" fill="#3F3B3B"/>
</svg>
