<svg width="22" height="22" viewBox="0 0 22 22" fill="none" xmlns="http://www.w3.org/2000/svg">
<path fill-rule="evenodd" clip-rule="evenodd" d="M11 20.625C16.3157 20.625 20.625 16.3157 20.625 11C20.625 5.68426 16.3157 1.375 11 1.375C5.68426 1.375 1.375 5.68426 1.375 11C1.375 16.3157 5.68426 20.625 11 20.625ZM11 22C17.0751 22 22 17.0751 22 11C22 4.92487 17.0751 0 11 0C4.92487 0 0 4.92487 0 11C0 17.0751 4.92487 22 11 22ZM11.0002 3.3C11.3594 3.3 11.6564 3.56698 11.7034 3.91338L11.7098 4.00968V10.2903H17.6236C18.0155 10.2903 18.3332 10.6081 18.3332 11C18.3332 11.3593 18.0663 11.6562 17.7199 11.7032L17.6236 11.7097H11.7098V17.257C11.7098 17.6489 11.3921 17.9667 11.0002 17.9667C10.6409 17.9667 10.3439 17.6997 10.297 17.3533L10.2905 17.257V11.7097H4.37625C3.98431 11.7097 3.66658 11.392 3.66658 11C3.66658 10.6407 3.93356 10.3438 4.27996 10.2968L4.37625 10.2903H10.2905V4.00968C10.2905 3.61773 10.6082 3.3 11.0002 3.3Z" fill="#3F3B3B"/>
</svg>
