<svg width="21" height="20" viewBox="0 0 21 20" fill="none" xmlns="http://www.w3.org/2000/svg"><path fill-rule="evenodd" clip-rule="evenodd" d="M20.1328 10.0254C20.1328 4.64061 15.7676 0.275391 10.3828 0.275391C4.99804 0.275391 0.632812 4.64061 0.632812 10.0254C0.632812 15.4102 4.99804 19.7754 10.3828 19.7754C15.7676 19.7754 20.1328 15.4102 20.1328 10.0254ZM5.79553 8.47378C5.57857 8.25682 5.57857 7.90507 5.79553 7.68811C5.99277 7.49087 6.3014 7.47294 6.5189 7.63432L6.58121 7.68811L10.6328 11.7395L14.6844 7.68811C14.8817 7.49087 15.1903 7.47294 15.4078 7.63432L15.4701 7.68811C15.6673 7.88534 15.6853 8.19398 15.5239 8.41147L15.4701 8.47378L11.0257 12.9182C10.8284 13.1155 10.5198 13.1334 10.3023 12.972L10.24 12.9182L5.79553 8.47378ZM10.3828 18.2754C14.9392 18.2754 18.6328 14.5817 18.6328 10.0254C18.6328 5.46904 14.9392 1.77539 10.3828 1.77539C5.82646 1.77539 2.13281 5.46904 2.13281 10.0254C2.13281 14.5817 5.82646 18.2754 10.3828 18.2754Z" fill="#A44D8E"/></svg>
