<svg width="24" height="24" viewBox="0 0 24 24" fill="none" xmlns="http://www.w3.org/2000/svg">
<path fill-rule="evenodd" clip-rule="evenodd" d="M22 12C22 6.61522 17.6348 2.25 12.25 2.25C6.86522 2.25 2.5 6.61522 2.5 12C2.5 17.3848 6.86522 21.75 12.25 21.75C17.6348 21.75 22 17.3848 22 12ZM7.66272 10.4484C7.44576 10.2314 7.44576 9.87968 7.66272 9.66272C7.85995 9.46548 8.16859 9.44755 8.38608 9.60893L8.44839 9.66272L12.5 13.7141L16.5516 9.66272C16.7488 9.46548 17.0575 9.44755 17.275 9.60893L17.3373 9.66272C17.5345 9.85995 17.5524 10.1686 17.3911 10.3861L17.3373 10.4484L12.8928 14.8928C12.6956 15.0901 12.387 15.108 12.1695 14.9466L12.1072 14.8928L7.66272 10.4484ZM12.25 20.25C16.8063 20.25 20.5 16.5563 20.5 12C20.5 7.44365 16.8063 3.75 12.25 3.75C7.69365 3.75 4 7.44365 4 12C4 16.5563 7.69365 20.25 12.25 20.25Z" fill="#3F3B3B"/>
</svg>
