<svg width="24" height="24" viewBox="0 0 24 24" fill="none" xmlns="http://www.w3.org/2000/svg">
<path fill-rule="evenodd" clip-rule="evenodd" d="M11.75 21.5C17.1348 21.5 21.5 17.1348 21.5 11.75C21.5 6.36522 17.1348 2 11.75 2C6.36522 2 2 6.36522 2 11.75C2 17.1348 6.36522 21.5 11.75 21.5ZM7.14347 14.1232C6.93736 13.9171 6.93736 13.5829 7.14347 13.3768L11.3657 9.15458L11.4249 9.10348C11.6315 8.95018 11.9247 8.96721 12.1121 9.15458L16.3343 13.3768L16.3854 13.436C16.5387 13.6426 16.5217 13.9358 16.3343 14.1232L16.2751 14.1743C16.0685 14.3276 15.7753 14.3106 15.5879 14.1232L11.7389 10.2744L7.88986 14.1232L7.83067 14.1743C7.62405 14.3276 7.33084 14.3106 7.14347 14.1232Z" fill="#3F3B3B"/>
</svg>
