<svg width="24" height="24" viewBox="0 0 24 24" fill="none" xmlns="http://www.w3.org/2000/svg">
<path fill-rule="evenodd" clip-rule="evenodd" d="M11.75 21.5C17.1348 21.5 21.5 17.1348 21.5 11.75C21.5 6.36522 17.1348 2 11.75 2C6.36522 2 2 6.36522 2 11.75C2 17.1348 6.36522 21.5 11.75 21.5ZM7.14347 9.65458C6.93736 9.86069 6.93736 10.1949 7.14347 10.401L11.3657 14.6232L11.4249 14.6743C11.6315 14.8276 11.9247 14.8106 12.1121 14.6232L16.3343 10.401L16.3854 10.3418C16.5387 10.1352 16.5217 9.84196 16.3343 9.65458L16.2751 9.60348C16.0685 9.45018 15.7753 9.46721 15.5879 9.65458L11.7389 13.5034L7.88986 9.65458L7.83067 9.60348C7.62405 9.45018 7.33084 9.46721 7.14347 9.65458Z" fill="#3F3B3B"/>
</svg>
