<svg width="22" height="22" viewBox="0 0 22 22" fill="none" xmlns="http://www.w3.org/2000/svg">
<path fill-rule="evenodd" clip-rule="evenodd" d="M11 20.625C16.3157 20.625 20.625 16.3157 20.625 11C20.625 5.68426 16.3157 1.375 11 1.375C5.68426 1.375 1.375 5.68426 1.375 11C1.375 16.3157 5.68426 20.625 11 20.625ZM11 22C17.0751 22 22 17.0751 22 11C22 4.92487 17.0751 0 11 0C4.92487 0 0 4.92487 0 11C0 17.0751 4.92487 22 11 22ZM5.81432 5.81453C6.06837 5.56048 6.46711 5.53931 6.74528 5.75101L6.81795 5.81453L10.9998 9.99636L15.1816 5.81457C15.4587 5.53743 15.9081 5.53743 16.1852 5.81457C16.4393 6.06862 16.4604 6.46737 16.2487 6.74553L16.1852 6.81821L12.0034 11L16.1852 15.1818C16.4624 15.4589 16.4624 15.9083 16.1852 16.1854C15.9312 16.4395 15.5324 16.4606 15.2543 16.2489L15.1816 16.1854L10.9998 12.0036L6.81795 16.1855C6.54081 16.4626 6.09146 16.4626 5.81432 16.1855C5.56027 15.9314 5.5391 15.5327 5.7508 15.2545L5.81432 15.1818L9.99615 11L5.81432 6.81816C5.53717 6.54102 5.53717 6.09167 5.81432 5.81453Z" fill="#3F3B3B"/>
</svg>
