<svg width="20" height="20" viewBox="0 0 20 20" fill="none" xmlns="http://www.w3.org/2000/svg">
    <path fill-rule="evenodd" clip-rule="evenodd" d="M9.75 19.5C15.1348 19.5 19.5 15.1348 19.5 9.75C19.5 4.36522 15.1348 0 9.75 0C4.36522 0 0 4.36522 0 9.75C0 15.1348 4.36522 19.5 9.75 19.5ZM5.14347 12.1232C4.93736 11.9171 4.93736 11.5829 5.14347 11.3768L9.36569 7.15458L9.42489 7.10348C9.6315 6.95018 9.92471 6.96721 10.1121 7.15458L14.3343 11.3768L14.3854 11.436C14.5387 11.6426 14.5217 11.9358 14.3343 12.1232L14.2751 12.1743C14.0685 12.3276 13.7753 12.3106 13.5879 12.1232L9.73889 8.27441L5.88986 12.1232L5.83067 12.1743C5.62405 12.3276 5.33084 12.3106 5.14347 12.1232Z" fill="#A44D8E"/>
</svg>
