<svg width="24" height="24" viewBox="0 0 24 24" fill="none" xmlns="http://www.w3.org/2000/svg">
<path fill-rule="evenodd" clip-rule="evenodd" d="M22 11.75C22 6.36522 17.6348 2 12.25 2C6.86522 2 2.5 6.36522 2.5 11.75C2.5 17.1348 6.86522 21.5 12.25 21.5C17.6348 21.5 22 17.1348 22 11.75ZM13.6072 7.1905C13.8241 6.97354 14.1759 6.97354 14.3928 7.1905C14.5901 7.38773 14.608 7.69637 14.4466 7.91386L14.3928 7.97617L10.3415 12.0278L14.3928 16.0794C14.5901 16.2766 14.608 16.5853 14.4466 16.8027L14.3928 16.8651C14.1956 17.0623 13.887 17.0802 13.6695 16.9189L13.6072 16.8651L9.16272 12.4206C8.96548 12.2234 8.94755 11.9147 9.10893 11.6973L9.16272 11.6349L13.6072 7.1905ZM12.25 20C16.8063 20 20.5 16.3063 20.5 11.75C20.5 7.19365 16.8063 3.5 12.25 3.5C7.69365 3.5 4 7.19365 4 11.75C4 16.3063 7.69365 20 12.25 20Z" fill="#3F3B3B"/>
</svg>
