<svg width="24" height="24" viewBox="0 0 24 24" fill="none" xmlns="http://www.w3.org/2000/svg">
<path fill-rule="evenodd" clip-rule="evenodd" d="M22 11.75C22 6.36522 17.6348 2 12.25 2C6.86522 2 2.5 6.36522 2.5 11.75C2.5 17.1348 6.86522 21.5 12.25 21.5C17.6348 21.5 22 17.1348 22 11.75ZM10.9484 7.1905C10.7314 6.97354 10.3797 6.97354 10.1627 7.1905C9.96548 7.38773 9.94755 7.69637 10.1089 7.91386L10.1627 7.97617L14.2141 12.0278L10.1627 16.0794C9.96548 16.2766 9.94755 16.5853 10.1089 16.8027L10.1627 16.8651C10.36 17.0623 10.6686 17.0802 10.8861 16.9189L10.9484 16.8651L15.3928 12.4206C15.5901 12.2234 15.608 11.9147 15.4466 11.6973L15.3928 11.6349L10.9484 7.1905ZM12.25 20C16.8063 20 20.5 16.3063 20.5 11.75C20.5 7.19365 16.8063 3.5 12.25 3.5C7.69365 3.5 4 7.19365 4 11.75C4 16.3063 7.69365 20 12.25 20Z" fill="#3F3B3B"/>
</svg>
