<svg width="24" height="24" viewBox="0 0 24 24" fill="none" xmlns="http://www.w3.org/2000/svg">
    <path fill-rule="evenodd" clip-rule="evenodd" d="M5.41773 4.17428C5.06975 3.91609 4.57592 3.94477 4.26035 4.26035C3.91322 4.60748 3.91322 5.1703 4.26035 5.51743L10.7429 12L4.26035 18.4826L4.17428 18.5823C3.91609 18.9303 3.94477 19.4241 4.26035 19.7397C4.60748 20.0868 5.1703 20.0868 5.51743 19.7397L12 13.2571L18.4826 19.7397L18.5823 19.8257C18.9303 20.0839 19.4241 20.0552 19.7397 19.7397C20.0868 19.3925 20.0868 18.8297 19.7397 18.4826L13.2571 12L19.7397 5.51743L19.8257 5.41773C20.0839 5.06975 20.0552 4.57592 19.7397 4.26035C19.3925 3.91322 18.8297 3.91322 18.4826 4.26035L12 10.7429L5.51743 4.26035L5.41773 4.17428Z" fill="#3F3B3B"/>
    <path d="M4.26035 4.26035L4.08357 4.08357L4.08357 4.08357L4.26035 4.26035ZM5.41773 4.17428L5.5811 3.98504L5.57411 3.97901L5.5667 3.97351L5.41773 4.17428ZM4.26035 5.51743L4.43713 5.34065H4.43713L4.26035 5.51743ZM10.7429 12L10.9197 12.1768L11.0965 12L10.9197 11.8232L10.7429 12ZM4.26035 18.4826L4.08357 18.3058L4.0771 18.3123L4.07111 18.3192L4.26035 18.4826ZM4.17428 18.5823L3.98504 18.4189L3.97901 18.4259L3.97351 18.4333L4.17428 18.5823ZM4.26035 19.7397L4.43713 19.5629H4.43713L4.26035 19.7397ZM5.51743 19.7397L5.34065 19.5629H5.34065L5.51743 19.7397ZM12 13.2571L12.1768 13.0803L12 12.9035L11.8232 13.0803L12 13.2571ZM18.4826 19.7397L18.3058 19.9164L18.3123 19.9229L18.3192 19.9289L18.4826 19.7397ZM18.5823 19.8257L18.4189 20.015L18.4259 20.021L18.4333 20.0265L18.5823 19.8257ZM19.7397 19.7397L19.9164 19.9164L19.7397 19.7397ZM19.7397 18.4826L19.5629 18.6593L19.7397 18.4826ZM13.2571 12L13.0803 11.8232L12.9035 12L13.0803 12.1768L13.2571 12ZM19.7397 5.51743L19.9164 5.6942L19.9229 5.68773L19.9289 5.68079L19.7397 5.51743ZM19.8257 5.41773L20.015 5.5811L20.021 5.57411L20.0265 5.5667L19.8257 5.41773ZM19.7397 4.26035L19.9164 4.08357V4.08357L19.7397 4.26035ZM18.4826 4.26035L18.6593 4.43713L18.4826 4.26035ZM12 10.7429L11.8232 10.9197L12 11.0965L12.1768 10.9197L12 10.7429ZM5.51743 4.26035L5.6942 4.08357L5.68773 4.0771L5.6808 4.07111L5.51743 4.26035ZM4.43713 4.43713C4.66379 4.21046 5.01883 4.18961 5.26876 4.37505L5.5667 3.97351C5.12066 3.64256 4.48806 3.67909 4.08357 4.08357L4.43713 4.43713ZM4.43713 5.34065C4.18762 5.09115 4.18762 4.68663 4.43713 4.43713L4.08357 4.08357C3.63881 4.52834 3.63881 5.24944 4.08357 5.6942L4.43713 5.34065ZM10.9197 11.8232L4.43713 5.34065L4.08357 5.6942L10.5661 12.1768L10.9197 11.8232ZM4.43713 18.6593L10.9197 12.1768L10.5661 11.8232L4.08357 18.3058L4.43713 18.6593ZM4.36352 18.7456L4.44959 18.6459L4.07111 18.3192L3.98504 18.4189L4.36352 18.7456ZM4.43713 19.5629C4.21046 19.3362 4.18961 18.9812 4.37505 18.7312L3.97351 18.4333C3.64256 18.8793 3.67909 19.5119 4.08357 19.9164L4.43713 19.5629ZM5.34065 19.5629C5.09115 19.8124 4.68663 19.8124 4.43713 19.5629L4.08357 19.9164C4.52834 20.3612 5.24944 20.3612 5.69421 19.9164L5.34065 19.5629ZM11.8232 13.0803L5.34065 19.5629L5.6942 19.9164L12.1768 13.4339L11.8232 13.0803ZM18.6593 19.5629L12.1768 13.0803L11.8232 13.4339L18.3058 19.9164L18.6593 19.5629ZM18.7456 19.6365L18.6459 19.5504L18.3192 19.9289L18.4189 20.015L18.7456 19.6365ZM19.5629 19.5629C19.3362 19.7895 18.9812 19.8104 18.7312 19.6249L18.4333 20.0265C18.8793 20.3574 19.5119 20.3209 19.9164 19.9164L19.5629 19.5629ZM19.5629 18.6593C19.8124 18.9088 19.8124 19.3134 19.5629 19.5629L19.9164 19.9164C20.3612 19.4717 20.3612 18.7506 19.9164 18.3058L19.5629 18.6593ZM13.0803 12.1768L19.5629 18.6593L19.9164 18.3058L13.4339 11.8232L13.0803 12.1768ZM19.5629 5.34065L13.0803 11.8232L13.4339 12.1768L19.9164 5.6942L19.5629 5.34065ZM19.6365 5.25437L19.5504 5.35406L19.9289 5.68079L20.015 5.5811L19.6365 5.25437ZM19.5629 4.43713C19.7895 4.66379 19.8104 5.01883 19.6249 5.26876L20.0265 5.5667C20.3574 5.12066 20.3209 4.48806 19.9164 4.08357L19.5629 4.43713ZM18.6593 4.43713C18.9088 4.18762 19.3134 4.18762 19.5629 4.43713L19.9164 4.08357C19.4717 3.63881 18.7506 3.63881 18.3058 4.08357L18.6593 4.43713ZM12.1768 10.9197L18.6593 4.43713L18.3058 4.08357L11.8232 10.5661L12.1768 10.9197ZM5.34065 4.43713L11.8232 10.9197L12.1768 10.5661L5.6942 4.08357L5.34065 4.43713ZM5.25437 4.36352L5.35406 4.44959L5.6808 4.07111L5.5811 3.98504L5.25437 4.36352Z" fill="#3F3B3B"/>
</svg>
