<svg width="16" height="16" viewBox="0 0 16 16" fill="none" xmlns="http://www.w3.org/2000/svg">
<path fill-rule="evenodd" clip-rule="evenodd" d="M1.41773 0.174284C1.06975 -0.0839143 0.575925 -0.0552256 0.26035 0.26035C-0.0867832 0.607482 -0.0867832 1.1703 0.26035 1.51743L6.74292 8L0.26035 14.4826L0.174284 14.5823C-0.0839143 14.9303 -0.0552256 15.4241 0.26035 15.7397C0.607482 16.0868 1.1703 16.0868 1.51743 15.7397L8 9.25708L14.4826 15.7397L14.5823 15.8257C14.9303 16.0839 15.4241 16.0552 15.7397 15.7397C16.0868 15.3925 16.0868 14.8297 15.7397 14.4826L9.25708 8L15.7397 1.51743L15.8257 1.41773C16.0839 1.06975 16.0552 0.575925 15.7397 0.26035C15.3925 -0.0867832 14.8297 -0.0867832 14.4826 0.26035L8 6.74292L1.51743 0.26035L1.41773 0.174284Z" fill="#3F3B3B"/>
</svg>
