<svg width="24" height="24" viewBox="0 0 24 24" fill="none" xmlns="http://www.w3.org/2000/svg">
    <path d="M14.168 15.5139V19.04L17.6941 15.5139H14.168Z" fill="#3F3B3B"/>
    <path d="M17.4767 3.65381H6.52315C6.23541 3.65381 6 3.88922 6 4.17695V18.8233C6 19.1111 6.23541 19.3465 6.52315 19.3465H13.1193L13.1198 14.9909C13.1198 14.7016 13.3537 14.4677 13.643 14.4677L18 14.4662L17.9999 4.17685C17.9999 3.88926 17.7645 3.65385 17.4769 3.65385L17.4767 3.65381ZM8.21053 16.0992C8.21053 15.81 8.44442 15.5761 8.73368 15.5761H11.7708C12.06 15.5761 12.2939 15.81 12.2939 16.0992C12.2939 16.3885 12.06 16.6224 11.7708 16.6224H8.73368C8.44442 16.6224 8.21053 16.3885 8.21053 16.0992V16.0992ZM15.2662 13.5566H8.73364C8.44439 13.5566 8.2105 13.3227 8.2105 13.0334C8.2105 12.7442 8.44438 12.5103 8.73364 12.5103H15.2662C15.5554 12.5103 15.7893 12.7442 15.7893 13.0334C15.7892 13.3227 15.5554 13.5566 15.2662 13.5566ZM15.2662 10.4901H8.73364C8.44439 10.4901 8.2105 10.2562 8.2105 9.96694C8.2105 9.67768 8.44438 9.44379 8.73364 9.44379H15.2662C15.5554 9.44379 15.7893 9.67768 15.7893 9.96694C15.7892 10.2563 15.5554 10.4901 15.2662 10.4901ZM15.2662 7.4243H8.73364C8.44439 7.4243 8.2105 7.19042 8.2105 6.90116C8.2105 6.61191 8.44438 6.37801 8.73364 6.37801H15.2662C15.5554 6.37801 15.7893 6.6119 15.7893 6.90116C15.7892 7.19055 15.5554 7.4243 15.2662 7.4243Z" fill="#3F3B3B"/>
</svg>
