<svg width="24" height="24" viewBox="0 0 24 24" fill="none" xmlns="http://www.w3.org/2000/svg">
    <path fill-rule="evenodd" clip-rule="evenodd" d="M18.1893 4.75H16C15.6203 4.75 15.3065 4.46785 15.2568 4.10177L15.25 4C15.25 3.6203 15.5322 3.30651 15.8982 3.25685L16 3.25H19.9998H20H20.0003C20.1921 3.25007 20.384 3.3233 20.5303 3.46967C20.6024 3.54174 20.6567 3.62482 20.6933 3.7135C20.7174 3.77175 20.7344 3.83368 20.7432 3.89823L20.7432 3.89894C20.7477 3.93246 20.75 3.96623 20.75 4V8C20.75 8.41421 20.4142 8.75 20 8.75C19.6203 8.75 19.3065 8.46785 19.2568 8.10177L19.25 8V5.81066L14.5303 10.5303C14.2374 10.8232 13.7626 10.8232 13.4697 10.5303C13.2034 10.2641 13.1792 9.8474 13.3971 9.55379L13.4697 9.46967L18.1893 4.75ZM4 15.25C4.3797 15.25 4.69349 15.5322 4.74315 15.8982L4.75 16V18.1893L9.46967 13.4697C9.76256 13.1768 10.2374 13.1768 10.5303 13.4697C10.7966 13.7359 10.8208 14.1526 10.6029 14.4462L10.5303 14.5303L5.81066 19.25H8C8.3797 19.25 8.69349 19.5322 8.74315 19.8982L8.75 20C8.75 20.3797 8.46785 20.6935 8.10177 20.7432L8 20.75H4C3.89811 20.75 3.80096 20.7297 3.71238 20.6929C3.62412 20.6563 3.54143 20.6021 3.46967 20.5303C3.39777 20.4584 3.34353 20.3756 3.30693 20.2871C3.28269 20.2287 3.26563 20.1665 3.25685 20.1018L3.2568 20.101C3.25227 20.0675 3.25 20.0338 3.25 20V16C3.25 15.5858 3.58579 15.25 4 15.25Z" fill="#212121"/>
</svg>
