<svg width="20" height="20" viewBox="0 0 20 20" fill="none" xmlns="http://www.w3.org/2000/svg">
    <path fill-rule="evenodd" clip-rule="evenodd" d="M12.5002 3.95831H15.1579L7.89155 11.2247L7.83104 11.2948C7.64949 11.5395 7.66966 11.8867 7.89155 12.1086C8.13563 12.3527 8.53136 12.3527 8.77544 12.1086L16.0418 4.8422V7.49998L16.0475 7.58479C16.0889 7.88985 16.3504 8.12498 16.6668 8.12498C17.012 8.12498 17.2918 7.84516 17.2918 7.49998V3.33331C17.2918 3.30518 17.2899 3.27704 17.2862 3.24912L17.2861 3.2485C17.2788 3.19462 17.2646 3.14292 17.2445 3.09431C17.2147 3.02231 17.171 2.95475 17.1131 2.89579L17.1039 2.88655C16.9912 2.77629 16.837 2.70831 16.6668 2.70831H16.6667H12.5002L12.4154 2.71402C12.1103 2.7554 11.8752 3.0169 11.8752 3.33331L11.8809 3.41812C11.9223 3.72318 12.1837 3.95831 12.5002 3.95831ZM9.79183 5.83331C9.79183 5.48813 9.51201 5.20831 9.16683 5.20831H5.00016L4.86056 5.21249C3.65992 5.28464 2.7085 6.2812 2.7085 7.49998V15L2.71268 15.1396C2.78483 16.3402 3.78139 17.2916 5.00016 17.2916H12.5002L12.6398 17.2875C13.8404 17.2153 14.7918 16.2188 14.7918 15V10.8333L14.7861 10.7485C14.7447 10.4434 14.4832 10.2083 14.1668 10.2083C13.8217 10.2083 13.5418 10.4881 13.5418 10.8333V15L13.5365 15.1065C13.4831 15.6318 13.0395 16.0416 12.5002 16.0416H5.00016L4.89366 16.0363C4.36839 15.9829 3.9585 15.5393 3.9585 15V7.49998L3.96387 7.39347C4.01722 6.86821 4.46082 6.45831 5.00016 6.45831H9.16683L9.25164 6.45261C9.5567 6.41122 9.79183 6.14973 9.79183 5.83331Z" fill="#3F3B3B"/>
</svg>
