<svg width="18" height="18" viewBox="0 0 18 18" fill="none" xmlns="http://www.w3.org/2000/svg">
<path fill-rule="evenodd" clip-rule="evenodd" d="M10.75 1.5C10.0596 1.5 9.5 2.05964 9.5 2.75C9.5 3.44036 10.0596 4 10.75 4C11.4404 4 12 3.44036 12 2.75C12 2.05964 11.4404 1.5 10.75 1.5ZM13.3965 2C13.07 0.845748 12.0088 0 10.75 0C9.49122 0 8.42998 0.845748 8.10352 2H0.75C0.335786 2 0 2.33579 0 2.75C0 3.16421 0.335786 3.5 0.75 3.5H8.10352C8.42998 4.65425 9.49122 5.5 10.75 5.5C12.0088 5.5 13.07 4.65425 13.3965 3.5H16.75C17.1642 3.5 17.5 3.16421 17.5 2.75C17.5 2.33579 17.1642 2 16.75 2H13.3965ZM4.75 7.5C4.05964 7.5 3.5 8.05964 3.5 8.75C3.5 9.44036 4.05964 10 4.75 10C5.44036 10 6 9.44036 6 8.75C6 8.05964 5.44036 7.5 4.75 7.5ZM4.75 6C6.00878 6 7.07002 6.84575 7.39648 8H16.75C17.1642 8 17.5 8.33579 17.5 8.75C17.5 9.16421 17.1642 9.5 16.75 9.5H7.39648C7.07002 10.6543 6.00878 11.5 4.75 11.5C3.49122 11.5 2.42998 10.6543 2.10352 9.5H0.75C0.335786 9.5 0 9.16421 0 8.75C0 8.33579 0.335786 8 0.75 8H2.10352C2.42998 6.84575 3.49122 6 4.75 6ZM12.5 14.75C12.5 14.0596 13.0596 13.5 13.75 13.5C14.4404 13.5 15 14.0596 15 14.75C15 15.4404 14.4404 16 13.75 16C13.0596 16 12.5 15.4404 12.5 14.75ZM16.3965 14C16.07 12.8457 15.0088 12 13.75 12C12.4912 12 11.43 12.8457 11.1035 14H0.75C0.335786 14 0 14.3358 0 14.75C0 15.1642 0.335786 15.5 0.75 15.5H11.1035C11.43 16.6543 12.4912 17.5 13.75 17.5C15.0088 17.5 16.07 16.6543 16.3965 15.5H16.75C17.1642 15.5 17.5 15.1642 17.5 14.75C17.5 14.3358 17.1642 14 16.75 14H16.3965Z" fill="#3F3B3B"/>
</svg>
