<svg width="24" height="24" viewBox="0 0 24 24" fill="none" xmlns="http://www.w3.org/2000/svg">
<path fill-rule="evenodd" clip-rule="evenodd" d="M12 2.25C6.61522 2.25 2.25 6.61522 2.25 12C2.25 17.3848 6.61522 21.75 12 21.75C17.3848 21.75 21.75 17.3848 21.75 12C21.75 6.61522 17.3848 2.25 12 2.25ZM12 3.75C16.5563 3.75 20.25 7.44365 20.25 12C20.25 16.5563 16.5563 20.25 12 20.25C7.44365 20.25 3.75 16.5563 3.75 12C3.75 7.44365 7.44365 3.75 12 3.75ZM11.1502 10.4698C10.6132 10.7687 10.25 11.3419 10.25 12C10.25 12.9665 11.0335 13.75 12 13.75C12.2063 13.75 12.4042 13.7143 12.588 13.6488L14.8095 15.8703C15.1024 16.1632 15.5773 16.1632 15.8702 15.8703C16.1364 15.6041 16.1606 15.1874 15.9428 14.8938L15.8702 14.8097L13.6487 12.5882C13.7143 12.4044 13.75 12.2064 13.75 12C13.75 11.2631 13.2945 10.6325 12.6497 10.3746L12.6326 7.05705L12.6239 6.94626C12.5684 6.58488 12.2553 6.30899 11.8787 6.31093C11.4645 6.31307 11.1305 6.65058 11.1326 7.06479L11.1502 10.4698ZM12 11.75C12.1381 11.75 12.25 11.8619 12.25 12C12.25 12.1381 12.1381 12.25 12 12.25C11.8619 12.25 11.75 12.1381 11.75 12C11.75 11.8619 11.8619 11.75 12 11.75Z" fill="#3F3B3B"/>
</svg>
