<svg width="24" height="24" viewBox="0 0 24 24" fill="none" xmlns="http://www.w3.org/2000/svg">
    <path fill-rule="evenodd" clip-rule="evenodd" d="M3 5.75C3 5.33579 3.33579 5 3.75 5H19.75C20.1642 5 20.5 5.33579 20.5 5.75C20.5 6.16421 20.1642 6.5 19.75 6.5H3.75C3.33579 6.5 3 6.16421 3 5.75ZM3 11.75C3 11.3358 3.33579 11 3.75 11H19.75C20.1642 11 20.5 11.3358 20.5 11.75C20.5 12.1642 20.1642 12.5 19.75 12.5H3.75C3.33579 12.5 3 12.1642 3 11.75ZM3.75 17C3.33579 17 3 17.3358 3 17.75C3 18.1642 3.33579 18.5 3.75 18.5H19.75C20.1642 18.5 20.5 18.1642 20.5 17.75C20.5 17.3358 20.1642 17 19.75 17H3.75Z" fill="#3F3B3B"/>
</svg>
