<svg width="24" height="24" viewBox="0 0 24 24" fill="none" xmlns="http://www.w3.org/2000/svg">
    <path fill-rule="evenodd" clip-rule="evenodd" d="M11.2212 2.21967C11.4874 1.9534 11.9041 1.9292 12.1977 2.14705L12.2818 2.21967L21.2818 11.2197C21.7294 11.6673 21.4527 12.4159 20.8542 12.4935L20.7515 12.5H19.5015V18.75C19.5015 20.2125 18.3598 21.4084 16.919 21.495L16.7515 21.5H6.7515C5.28897 21.5 4.0931 20.3583 4.00652 18.9175L4.0015 18.75V12.5H2.7515C2.11849 12.5 1.78485 11.7749 2.15321 11.2969L2.22117 11.2197L11.2212 2.21967ZM18.6497 11.0068C18.2837 11.0565 18.0015 11.3703 18.0015 11.75V18.75L17.9951 18.8778C17.931 19.5081 17.3987 20 16.7515 20H6.7515L6.6237 19.9935C5.99338 19.9295 5.5015 19.3972 5.5015 18.75V11.75L5.49466 11.6482C5.44499 11.2822 5.1312 11 4.7515 11H4.5615L11.7515 3.811L18.9405 11H18.7515C18.717 11 18.683 11.0023 18.6497 11.0068ZM13.7515 11H9.7515C9.33729 11 9.0015 11.3358 9.0015 11.75V15.75C9.0015 16.1642 9.33729 16.5 9.7515 16.5H13.7515C14.1657 16.5 14.5015 16.1642 14.5015 15.75V11.75C14.5015 11.3358 14.1657 11 13.7515 11ZM13.0015 12.5V15H10.5015V12.5H13.0015Z" fill="#3F3B3B"/>
</svg>
