<svg width="24" height="24" viewBox="0 0 24 24" fill="none" xmlns="http://www.w3.org/2000/svg">
    <path fill-rule="evenodd" clip-rule="evenodd" d="M5.81287 4.81307C2.39579 8.23008 2.3957 13.7702 5.81266 17.1873L10.0567 21.4304C11.1307 22.5032 12.8703 22.5032 13.9441 21.4306L18.1873 17.1873C21.6043 13.7702 21.6042 8.23008 18.1871 4.81307C14.7701 1.39605 9.22994 1.39605 5.81287 4.81307ZM17.1265 5.87374C19.9578 8.70498 19.9578 13.2954 17.1267 16.1267L12.8837 20.3697C12.3959 20.857 11.6051 20.857 11.1171 20.3694L6.87327 16.1266C4.04215 13.2954 4.04223 8.70498 6.87352 5.87374C9.70481 3.04249 14.2952 3.04249 17.1265 5.87374ZM12 7.25001C9.92893 7.25001 8.25 8.92895 8.25 11C8.25 13.0711 9.92893 14.75 12 14.75C14.0711 14.75 15.75 13.0711 15.75 11C15.75 8.92895 14.0711 7.25001 12 7.25001ZM12 8.75001C13.2426 8.75001 14.25 9.75737 14.25 11C14.25 12.2427 13.2426 13.25 12 13.25C10.7574 13.25 9.75 12.2427 9.75 11C9.75 9.75737 10.7574 8.75001 12 8.75001Z" fill="#3F3B3B"/>
</svg>
