<svg width="24" height="24" viewBox="0 0 24 24" fill="none" xmlns="http://www.w3.org/2000/svg">
<path d="M15 4H9C7.875 4 7 4.90625 7 6V18C7 19.125 7.875 20 9 20H15C16.0938 20 17 19.125 17 18V6C17 4.90625 16.0938 4 15 4ZM16 18C16 18.5625 15.5312 19 15 19H9C8.4375 19 8 18.5625 8 18V6C8 5.46875 8.4375 5 9 5H15C15.5312 5 16 5.46875 16 6V18ZM13 16.5H11C10.7188 16.5 10.5 16.75 10.5 17C10.5 17.2812 10.7188 17.5 11 17.5H13C13.25 17.5 13.5 17.2812 13.5 17C13.5 16.75 13.25 16.5 13 16.5Z" fill="#212121"/>
</svg>
