<svg width="24" height="24" viewBox="0 0 24 24" fill="none" xmlns="http://www.w3.org/2000/svg">
<path d="M17 4H7C5.875 4 5 4.90625 5 6V18C5 19.125 5.875 20 7 20H17C18.0938 20 19 19.125 19 18V6C19 4.90625 18.0938 4 17 4ZM18 18C18 18.5625 17.5312 19 17 19H7C6.4375 19 6 18.5625 6 18V6C6 5.46875 6.4375 5 7 5H17C17.5312 5 18 5.46875 18 6V18ZM13 16.5H11C10.7188 16.5 10.5 16.75 10.5 17C10.5 17.2812 10.7188 17.5 11 17.5H13C13.25 17.5 13.5 17.2812 13.5 17C13.5 16.75 13.25 16.5 13 16.5Z" fill="#212121"/>
</svg>
