<svg width="24" height="24" viewBox="0 0 24 24" fill="none" xmlns="http://www.w3.org/2000/svg">
    <path fill-rule="evenodd" clip-rule="evenodd" d="M14 5.75C14 3.67893 15.6789 2 17.75 2C19.8211 2 21.5 3.67893 21.5 5.75C21.5 7.82107 19.8211 9.5 17.75 9.5C16.5388 9.5 15.4617 8.92579 14.7761 8.03475L9.38211 10.8135C9.45907 11.1128 9.5 11.4266 9.5 11.75C9.5 12.0734 9.45907 12.3872 9.38211 12.6865L14.7761 15.4653C15.4617 14.5742 16.5388 14 17.75 14C19.8211 14 21.5 15.6789 21.5 17.75C21.5 19.8211 19.8211 21.5 17.75 21.5C15.6789 21.5 14 19.8211 14 17.75C14 17.4266 14.0409 17.1128 14.1179 16.8135L8.72386 14.0347C8.03827 14.9258 6.96119 15.5 5.75 15.5C3.67893 15.5 2 13.8211 2 11.75C2 9.67893 3.67893 8 5.75 8C6.96119 8 8.03827 8.57421 8.72386 9.46525L14.1179 6.68651C14.0409 6.38716 14 6.07336 14 5.75ZM7.80565 12.6661C7.79784 12.6793 7.79037 12.6928 7.78327 12.7065C7.76994 12.7324 7.75826 12.7587 7.74819 12.7853C7.37352 13.507 6.61933 14 5.75 14C4.50736 14 3.5 12.9926 3.5 11.75C3.5 10.5074 4.50736 9.5 5.75 9.5C6.61933 9.5 7.37352 9.99302 7.74819 10.7147C7.75826 10.7413 7.76994 10.7676 7.78327 10.7935C7.79037 10.8073 7.79784 10.8207 7.80566 10.8339C7.93056 11.1137 8 11.4238 8 11.75C8 12.0763 7.93056 12.3863 7.80565 12.6661ZM15.6944 16.8339C15.5694 17.1137 15.5 17.4237 15.5 17.75C15.5 18.9926 16.5074 20 17.75 20C18.9926 20 20 18.9926 20 17.75C20 16.5074 18.9926 15.5 17.75 15.5C16.8807 15.5 16.1265 15.993 15.7518 16.7147C15.7417 16.7413 15.7301 16.7676 15.7167 16.7935C15.7096 16.8072 15.7022 16.8207 15.6944 16.8339ZM17.75 8C16.8807 8 16.1265 7.50697 15.7518 6.78528C15.7417 6.7587 15.7301 6.73241 15.7167 6.70653C15.7096 6.69275 15.7022 6.67927 15.6943 6.66612C15.5694 6.38628 15.5 6.07625 15.5 5.75C15.5 4.50736 16.5074 3.5 17.75 3.5C18.9926 3.5 20 4.50736 20 5.75C20 6.99264 18.9926 8 17.75 8Z" fill="#3F3B3B"/>
</svg>
