<svg width="24" height="24" viewBox="0 0 24 24" fill="none" xmlns="http://www.w3.org/2000/svg">
    <mask id="path-1-outside-1_98_1023" maskUnits="userSpaceOnUse" x="3" y="10.2258" width="18" height="4" fill="black">
        <rect fill="white" x="3" y="10.2258" width="18" height="4"/>
        <path d="M19.2258 11.2258C19.6534 11.2258 20 11.5724 20 12C20 12.392 19.7087 12.7159 19.3309 12.7671L19.2258 12.7742H4.77419C4.34662 12.7742 4 12.4276 4 12C4 11.6081 4.29126 11.2842 4.66914 11.2329L4.77419 11.2258H19.2258Z"/>
    </mask>
    <path d="M19.2258 11.2258C19.6534 11.2258 20 11.5724 20 12C20 12.392 19.7087 12.7159 19.3309 12.7671L19.2258 12.7742H4.77419C4.34662 12.7742 4 12.4276 4 12C4 11.6081 4.29126 11.2842 4.66914 11.2329L4.77419 11.2258H19.2258Z" fill="#3F3B3B"/>
    <path d="M19.3309 12.7671L19.3644 13.266L19.3813 13.2649L19.3981 13.2626L19.3309 12.7671ZM19.2258 12.7742V13.2742H19.2426L19.2594 13.2731L19.2258 12.7742ZM4.66914 11.2329L4.63558 10.734L4.61869 10.7352L4.60192 10.7374L4.66914 11.2329ZM4.77419 11.2258V10.7258H4.75739L4.74063 10.727L4.77419 11.2258ZM19.2258 11.7258C19.3772 11.7258 19.5 11.8486 19.5 12H20.5C20.5 11.2963 19.9295 10.7258 19.2258 10.7258V11.7258ZM19.5 12C19.5 12.1384 19.397 12.2536 19.2636 12.2717L19.3981 13.2626C20.0205 13.1782 20.5 12.6455 20.5 12H19.5ZM19.2973 12.2683L19.1922 12.2753L19.2594 13.2731L19.3644 13.266L19.2973 12.2683ZM19.2258 12.2742H4.77419V13.2742H19.2258V12.2742ZM4.77419 12.2742C4.62276 12.2742 4.5 12.1515 4.5 12H3.5C3.5 12.7037 4.07048 13.2742 4.77419 13.2742V12.2742ZM4.5 12C4.5 11.8616 4.60301 11.7464 4.73636 11.7284L4.60192 10.7374C3.9795 10.8219 3.5 11.3545 3.5 12H4.5ZM4.7027 11.7318L4.80776 11.7247L4.74063 10.727L4.63558 10.734L4.7027 11.7318ZM4.77419 11.7258H19.2258V10.7258H4.77419V11.7258Z" fill="#3F3B3B" mask="url(#path-1-outside-1_98_1023)"/>
</svg>
