<svg width="38" height="38" viewBox="0 0 38 38" fill="none" xmlns="http://www.w3.org/2000/svg">
    <path fill-rule="evenodd" clip-rule="evenodd" d="M13.8555 6.33398H10.6888C9.15851 6.33398 7.91797 7.57453 7.91797 9.10482V28.1048C7.91797 29.6351 9.15851 30.8757 10.6888 30.8757H13.8555C15.3858 30.8757 16.6263 29.6351 16.6263 28.1048V9.10482C16.6263 7.57453 15.3858 6.33398 13.8555 6.33398ZM10.6888 8.70898H13.8555C14.0741 8.70898 14.2513 8.8862 14.2513 9.10482V28.1048C14.2513 28.3234 14.0741 28.5007 13.8555 28.5007H10.6888C10.4702 28.5007 10.293 28.3234 10.293 28.1048V9.10482C10.293 8.8862 10.4702 8.70898 10.6888 8.70898ZM26.5221 6.33398H23.3555C21.8252 6.33398 20.5846 7.57453 20.5846 9.10482V28.1048C20.5846 29.6351 21.8252 30.8757 23.3555 30.8757H26.5221C28.0524 30.8757 29.293 29.6351 29.293 28.1048V9.10482C29.293 7.57453 28.0524 6.33398 26.5221 6.33398ZM23.3555 8.70898H26.5221C26.7407 8.70898 26.918 8.8862 26.918 9.10482V28.1048C26.918 28.3234 26.7407 28.5007 26.5221 28.5007H23.3555C23.1369 28.5007 22.9596 28.3234 22.9596 28.1048V9.10482C22.9596 8.8862 23.1369 8.70898 23.3555 8.70898Z" fill="white"/>
</svg>
