<svg width="107" height="107" viewBox="0 0 107 107" fill="none" xmlns="http://www.w3.org/2000/svg">
    <path fill-rule="evenodd" clip-rule="evenodd" d="M98.082 52.3161C98.082 76.2907 78.6204 95.7259 54.6133 95.7259C30.6062 95.7259 11.1445 76.2907 11.1445 52.3161C11.1445 28.3415 30.6062 8.90625 54.6133 8.90625C78.6204 8.90625 98.082 28.3415 98.082 52.3161ZM41.5273 33.8075L41.5273 72.4736C41.5273 73.8916 43.0842 74.7604 44.2934 74.0172L75.7522 54.6842C76.9039 53.9764 76.9039 52.3047 75.7522 51.597L44.2934 32.2639C43.0842 31.5208 41.5273 32.3896 41.5273 33.8075ZM54.6133 14.332C75.6195 14.332 92.6484 31.3379 92.6484 52.3156C92.6484 73.2934 75.6195 90.2993 54.6133 90.2993C33.607 90.2993 16.5781 73.2934 16.5781 52.3156C16.5781 31.3379 33.607 14.332 54.6133 14.332Z" fill="white"/>
</svg>
