<svg width="24" height="24" viewBox="0 0 24 24" fill="none" xmlns="http://www.w3.org/2000/svg">
<path fill-rule="evenodd" clip-rule="evenodd" d="M11.75 4C12.1642 4 12.5 4.33579 12.5 4.75V18.75C12.5 19.1642 12.1642 19.5 11.75 19.5C11.3358 19.5 11 19.1642 11 18.75V4.75C11 4.33579 11.3358 4 11.75 4Z" fill="#3F3B3B"/>
<path fill-rule="evenodd" clip-rule="evenodd" d="M18.2803 12.2197C18.5732 12.5126 18.5732 12.9874 18.2803 13.2803L12.2803 19.2803C11.9874 19.5732 11.5126 19.5732 11.2197 19.2803C10.9268 18.9874 10.9268 18.5126 11.2197 18.2197L17.2197 12.2197C17.5126 11.9268 17.9874 11.9268 18.2803 12.2197Z" fill="#3F3B3B"/>
<path fill-rule="evenodd" clip-rule="evenodd" d="M5.21967 12.2197C5.51256 11.9268 5.98744 11.9268 6.28033 12.2197L12.2803 18.2197C12.5732 18.5126 12.5732 18.9874 12.2803 19.2803C11.9874 19.5732 11.5126 19.5732 11.2197 19.2803L5.21967 13.2803C4.92678 12.9874 4.92678 12.5126 5.21967 12.2197Z" fill="#3F3B3B"/>
</svg>
