<svg width="24" height="24" viewBox="0 0 24 24" fill="none" xmlns="http://www.w3.org/2000/svg">
<path fill-rule="evenodd" clip-rule="evenodd" d="M11.75 21.5C17.1348 21.5 21.5 17.1348 21.5 11.75C21.5 6.36522 17.1348 2 11.75 2C6.36522 2 2 6.36522 2 11.75C2 17.1348 6.36522 21.5 11.75 21.5ZM14.0732 7.15458C13.8671 6.94847 13.5329 6.94847 13.3268 7.15458L9.10458 11.3768L9.05348 11.436C8.90018 11.6426 8.91721 11.9358 9.10458 12.1232L13.3268 16.3454L13.386 16.3965C13.5926 16.5498 13.8858 16.5328 14.0732 16.3454L14.1243 16.2862C14.2776 16.0796 14.2606 15.7864 14.0732 15.599L10.2244 11.75L14.0732 7.90097L14.1243 7.84178C14.2776 7.63516 14.2606 7.34196 14.0732 7.15458Z" fill="#3F3B3B"/>
</svg>
