<svg width="24" height="24" viewBox="0 0 24 24" fill="none" xmlns="http://www.w3.org/2000/svg">
<path fill-rule="evenodd" clip-rule="evenodd" d="M22 11.75C22 6.36522 17.6348 2 12.25 2C6.86522 2 2.5 6.36522 2.5 11.75C2.5 17.1348 6.86522 21.5 12.25 21.5C17.6348 21.5 22 17.1348 22 11.75ZM17.3373 13.6072C17.5542 13.8241 17.5542 14.1759 17.3373 14.3928C17.14 14.5901 16.8314 14.608 16.6139 14.4466L16.5516 14.3928L12.5 10.3415L8.44839 14.3928C8.25116 14.5901 7.94252 14.608 7.72503 14.4466L7.66272 14.3928C7.46548 14.1956 7.44755 13.887 7.60893 13.6695L7.66272 13.6072L12.1072 9.16272C12.3044 8.96548 12.613 8.94755 12.8305 9.10893L12.8928 9.16272L17.3373 13.6072ZM12.25 20C16.8063 20 20.5 16.3063 20.5 11.75C20.5 7.19365 16.8063 3.5 12.25 3.5C7.69365 3.5 4 7.19365 4 11.75C4 16.3063 7.69365 20 12.25 20Z" fill="#3F3B3B"/>
</svg>
