<svg width="24" height="24" viewBox="0 0 24 24" fill="none" xmlns="http://www.w3.org/2000/svg">
    <path fill-rule="evenodd" clip-rule="evenodd" d="M12 3.25C12.3797 3.25 12.6935 3.53215 12.7432 3.89823L12.75 4V14.2757L16.664 10.2366C16.9418 9.94982 17.3766 9.92375 17.683 10.1584L17.7708 10.2366C18.0486 10.5233 18.0739 10.972 17.8466 11.2882L17.7708 11.3788L12.5534 16.7634C12.2755 17.0502 11.8408 17.0762 11.5344 16.8416L11.4466 16.7634L6.22922 11.3788C5.92359 11.0634 5.92359 10.552 6.22922 10.2366C6.50706 9.94982 6.94184 9.92375 7.24822 10.1584L7.336 10.2366L11.25 14.2757V4C11.25 3.58579 11.5858 3.25 12 3.25ZM20.7432 16.8982C20.6935 16.5322 20.3797 16.25 20 16.25C19.5858 16.25 19.25 16.5858 19.25 17V19L19.2435 19.1278C19.1795 19.7581 18.6472 20.25 18 20.25H6L5.87219 20.2435C5.24187 20.1795 4.75 19.6472 4.75 19V17L4.74315 16.8982C4.69349 16.5322 4.3797 16.25 4 16.25C3.58579 16.25 3.25 16.5858 3.25 17V19L3.25502 19.1675C3.3416 20.6083 4.53747 21.75 6 21.75H18L18.1675 21.745C19.6083 21.6584 20.75 20.4625 20.75 19V17L20.7432 16.8982Z" fill="#3F3B3B"/>
</svg>
