<svg width="24" height="24" viewBox="0 0 24 24" fill="none" xmlns="http://www.w3.org/2000/svg">
    <path fill-rule="evenodd" clip-rule="evenodd" d="M3.80429 6.63475C3.96053 6.12258 4.43679 5.75 5.00008 5.75H19.0001C19.5634 5.75 20.0396 6.12258 20.1959 6.63475L12.0001 12.0986L3.80429 6.63475ZM2.25011 6.98626C2.24997 6.99427 2.24996 7.00226 2.25008 7.01026V17C2.25008 18.5188 3.4813 19.75 5.00008 19.75H19.0001C20.5189 19.75 21.7501 18.5188 21.7501 17V7.01023M20.2501 8.40139V17C20.2501 17.6904 19.6904 18.25 19.0001 18.25H5.00008C4.30972 18.25 3.75008 17.6904 3.75008 17V8.40139L11.5841 13.624C11.836 13.792 12.1642 13.792 12.4161 13.624L20.2501 8.40139ZM21.75 6.98629C21.7427 5.47382 20.5143 4.25 19.0001 4.25H5.00008C3.48588 4.25 2.25751 5.4738 2.25011 6.98626" fill="#3F3B3B"/>
</svg>
