<svg width="24" height="24" viewBox="0 0 24 24" fill="none" xmlns="http://www.w3.org/2000/svg">
    <path fill-rule="evenodd" clip-rule="evenodd" d="M0 8.75C0 8.33579 0.460508 8 1.02857 8H22.9714L23.111 8.00685C23.613 8.05651 24 8.3703 24 8.75C24 9.16421 23.5395 9.5 22.9714 9.5H1.02857L0.889 9.49315C0.386953 9.44349 0 9.1297 0 8.75ZM0.25 16C0.25 15.5858 0.585787 15.25 1 15.25H17L17.1018 15.2568C17.4678 15.3065 17.75 15.6203 17.75 16C17.75 16.4142 17.4142 16.75 17 16.75H1L0.89823 16.7432C0.532154 16.6935 0.25 16.3797 0.25 16Z" fill="#3F3B3B"/>
</svg>
