<svg width="24" height="24" viewBox="0 0 24 24" fill="none" xmlns="http://www.w3.org/2000/svg">
    <path fill-rule="evenodd" clip-rule="evenodd" d="M16.4403 2.39281C16.313 2.30057 16.1591 2.25 16 2.25H12L11.8982 2.25685C11.5322 2.30651 11.25 2.6203 11.25 3V10.25H6.5L6.29408 10.2549C4.04251 10.3623 2.25 12.2218 2.25 14.5V21L2.25685 21.1018C2.30651 21.4678 2.6203 21.75 3 21.75H21L21.1018 21.7432C21.4678 21.6935 21.75 21.3797 21.75 21V15L21.7451 14.7826C21.6315 12.2601 19.5505 10.25 17 10.25H12.75V7.75H16L16.118 7.74066C16.2732 7.71593 16.4178 7.64285 16.5303 7.53033L18.5303 5.53033L18.6029 5.44621C18.8208 5.1526 18.7966 4.73594 18.5303 4.46967L16.5303 2.46967L16.4403 2.39281ZM9.739 11.75H12H17L17.1844 11.7551C18.8935 11.8508 20.25 13.267 20.25 15V20.25H10.75V14.5L10.7424 14.243C10.6866 13.3078 10.3284 12.454 9.76417 11.7781L9.739 11.75ZM12.75 3.75H15.689L16.939 5L15.688 6.25H12.75V3.75ZM6.5 11.75C5.03747 11.75 3.8416 12.8917 3.75502 14.3325L3.75 14.5V20.25H9.25V14.5C9.25 13.0375 8.1083 11.8416 6.66752 11.755L6.5 11.75ZM7.75 15C7.75 14.5858 7.41421 14.25 7 14.25H6L5.89823 14.2568C5.53215 14.3065 5.25 14.6203 5.25 15C5.25 15.4142 5.58579 15.75 6 15.75H7L7.10177 15.7432C7.46785 15.6935 7.75 15.3797 7.75 15Z" fill="#3F3B3B"/>
</svg>
