<svg width="24" height="24" viewBox="0 0 24 24" fill="none" xmlns="http://www.w3.org/2000/svg">
    <path fill-rule="evenodd" clip-rule="evenodd" d="M9 3.25C9.2726 3.25 9.52079 3.39753 9.65258 3.63029L9.69636 3.72146L11.6964 8.72146C11.8194 9.02906 11.7252 9.37612 11.475 9.58052L11.3859 9.64312L9.498 10.775L9.50875 10.7941C10.3412 12.2232 11.5066 13.4283 12.9031 14.3078L13.224 14.501L14.3569 12.6141C14.5273 12.33 14.8607 12.1951 15.1748 12.2706L15.2785 12.3036L20.2785 14.3036C20.5316 14.4049 20.7073 14.634 20.7432 14.8991L20.75 15V19C20.75 20.5188 19.5188 21.75 17.9545 21.7486C9.50376 21.2351 2.76494 14.4962 2.25 6C2.25 4.53747 3.3917 3.3416 4.83248 3.25502L5 3.25H9ZM8.492 4.75H5C4.30964 4.75 3.75 5.30964 3.74862 5.95451C4.21618 13.6485 10.3515 19.7838 18 20.25C18.6472 20.25 19.1795 19.7581 19.2435 19.1278L19.25 19V15.508L15.314 13.933L14.1431 15.8859C13.9606 16.1901 13.5936 16.3209 13.2653 16.2124L13.1683 16.1726C10.8487 15.0287 8.97133 13.1513 7.82736 10.8317C7.6704 10.5135 7.75921 10.1342 8.02812 9.91696L8.11413 9.85688L10.066 8.685L8.492 4.75Z" fill="#3F3B3B"/>
</svg>
