<svg width="24" height="24" viewBox="0 0 24 24" fill="none" xmlns="http://www.w3.org/2000/svg">
<path d="M19 4H5C3.875 4 3 4.90625 3 6V15C3 16.125 3.875 17 5 17H9.65625L9.0625 19H7.5C7.21875 19 7 19.25 7 19.5C7 19.7812 7.21875 20 7.5 20H16.5C16.75 20 17 19.7812 17 19.5C17 19.25 16.75 19 16.5 19H14.9062L14.3125 17H19C20.0938 17 21 16.125 21 15V6C21 4.90625 20.0938 4 19 4ZM10.0938 19L10.7188 17H13.25L13.875 19H10.0938ZM20 15C20 15.5625 19.5312 16 19 16H5C4.4375 16 4 15.5625 4 15V13H20V15ZM20 12H4V6C4 5.46875 4.4375 5 5 5H19C19.5312 5 20 5.46875 20 6V12Z" fill="#212121"/>
</svg>
