<svg width="16" height="16" viewBox="0 0 16 16" fill="none" xmlns="http://www.w3.org/2000/svg"><path fill-rule="evenodd" clip-rule="evenodd" d="M8.87105 1.31586C8.38961 0.450175 7.61059 0.451233 7.12974 1.31586L0.204546 13.7681C-0.276894 14.6338 0.120689 15.3337 1.09126 15.3337H14.9095C15.8771 15.3337 16.2771 14.6327 15.7962 13.7681L8.87105 1.31586ZM8 10.667C7.55092 10.667 7.17605 10.3244 7.13577 9.87708L6.78623 5.99495C6.72201 5.28164 7.2838 4.66699 8 4.66699C8.7162 4.66699 9.27799 5.28164 9.21377 5.99495L8.86423 9.87708C8.82395 10.3244 8.44908 10.667 8 10.667ZM6.66667 12.667C6.66667 13.4049 7.25641 14.0003 8 14.0003C8.74359 14.0003 9.33333 13.4049 9.33333 12.667C9.33333 11.9291 8.74359 11.3337 8 11.3337C7.25641 11.3337 6.66667 11.9291 6.66667 12.667Z" fill="#DC3545"/></svg>
